<?xml version="1.0" encoding="UTF-8"?> <!-- Generator: Adobe Illustrator 24.0.0, SVG Export Plug-In . SVG Version: 6.00 Build 0) --> <svg xmlns="http://www.w3.org/2000/svg" xmlns:xlink="http://www.w3.org/1999/xlink" version="1.1" id="Capa_1" x="0px" y="0px" viewBox="0 0 150 50" style="enable-background:new 0 0 150 50;" xml:space="preserve"> <style type="text/css"> .st0{fill:url(#SVGID_1_);} .st1{fill:#104BB9;} .st2{fill:url(#SVGID_2_);} .st3{clip-path:url(#SVGID_4_);} .st4{clip-path:url(#SVGID_6_);fill:url(#SVGID_7_);} .st5{clip-path:url(#SVGID_6_);} .st6{opacity:0.3;} .st7{opacity:0.4;fill:#F3FAFF;} .st8{opacity:0.29;fill:#F3FAFF;} .st9{fill:#FFFFFF;} .st10{fill:url(#SVGID_12_);} .st11{fill:url(#SVGID_13_);} .st12{fill:none;stroke:#E7E7E8;stroke-width:0.5;stroke-miterlimit:10;} .st13{opacity:0.28;} .st14{fill:#24418B;} .st15{fill:#F7AC34;} .st16{fill:#F0F6FF;} .st17{fill:#FF9C00;} .st18{fill:none;stroke:#24418B;stroke-width:0.9921;stroke-linecap:round;stroke-linejoin:round;stroke-miterlimit:10;} .st19{fill:none;stroke:#FFFFFF;stroke-width:0.9921;stroke-linecap:round;stroke-linejoin:round;stroke-miterlimit:10;} .st20{opacity:0.9;fill:#FFFFFF;} .st21{opacity:0.2;fill:none;stroke:#6679A2;stroke-width:0.5;stroke-miterlimit:10;} .st22{fill:#063796;} .st23{fill:none;stroke:#FFFFFF;stroke-linecap:round;stroke-linejoin:round;} .st24{fill:#F3FAFF;} .st25{fill:#6679A2;} .st26{fill:#060E31;} .st27{fill:none;stroke:#E7E7E8;stroke-miterlimit:10;} .st28{fill:none;stroke:#F4F5F6;stroke-miterlimit:10;} .st29{fill:none;stroke:#FF9C00;stroke-width:4;stroke-miterlimit:10;} .st30{fill:#009DDF;} .st31{clip-path:url(#SVGID_37_);} .st32{clip-path:url(#SVGID_39_);fill:url(#SVGID_40_);} .st33{clip-path:url(#SVGID_39_);} .st34{fill:#EFF5FC;} .st35{fill:#435AF7;} .st36{fill:#1E2235;} .st37{fill:#3F4565;} .st38{opacity:0;fill:#EFF5FC;} .st39{opacity:4.651163e-03;fill:#EEF4FB;} .st40{opacity:9.302326e-03;fill:#EDF3FA;} .st41{opacity:0.014;fill:#ECF2FA;} .st42{opacity:0.0186;fill:#EBF1F9;} .st43{opacity:0.0233;fill:#EAF0F8;} .st44{opacity:0.0279;fill:#E9EFF7;} .st45{opacity:0.0326;fill:#E8EEF7;} .st46{opacity:0.0372;fill:#E7EDF6;} .st47{opacity:0.0419;fill:#E6ECF5;} .st48{opacity:0.0465;fill:#E5EBF4;} .st49{opacity:0.0512;fill:#E4EAF4;} .st50{opacity:0.0558;fill:#E3E9F3;} .st51{opacity:0.0605;fill:#E2E8F2;} .st52{opacity:0.0651;fill:#E1E7F1;} .st53{opacity:0.0698;fill:#E0E6F0;} .st54{opacity:0.0744;fill:#DFE5F0;} .st55{opacity:0.0791;fill:#DEE4EF;} .st56{opacity:0.0837;fill:#DDE3EE;} .st57{opacity:0.0884;fill:#DCE2ED;} .st58{opacity:0.093;fill:#DBE1ED;} .st59{opacity:0.0977;fill:#DAE0EC;} .st60{opacity:0.1023;fill:#D9DFEB;} .st61{opacity:0.107;fill:#D8DEEA;} .st62{opacity:0.1116;fill:#D7DDEA;} .st63{opacity:0.1163;fill:#D6DCE9;} .st64{opacity:0.1209;fill:#D5DBE8;} .st65{opacity:0.1256;fill:#D4DBE7;} .st66{opacity:0.1302;fill:#D3DAE7;} .st67{opacity:0.1349;fill:#D2D9E6;} .st68{opacity:0.1395;fill:#D1D8E5;} .st69{opacity:0.1442;fill:#D0D7E4;} .st70{opacity:0.1488;fill:#CFD6E3;} .st71{opacity:0.1535;fill:#CED5E3;} .st72{opacity:0.1581;fill:#CDD4E2;} .st73{opacity:0.1628;fill:#CCD3E1;} .st74{opacity:0.1674;fill:#CBD2E0;} .st75{opacity:0.1721;fill:#CAD1E0;} .st76{opacity:0.1767;fill:#C9D0DF;} .st77{opacity:0.1814;fill:#C8CFDE;} .st78{opacity:0.186;fill:#C7CEDD;} .st79{opacity:0.1907;fill:#C6CDDD;} .st80{opacity:0.1953;fill:#C5CCDC;} .st81{opacity:0.2;fill:#C4CBDB;} .st82{opacity:0.2047;fill:#C3CADA;} .st83{opacity:0.2093;fill:#C2C9D9;} .st84{opacity:0.214;fill:#C1C8D9;} .st85{opacity:0.2186;fill:#C0C7D8;} .st86{opacity:0.2233;fill:#BFC6D7;} .st87{opacity:0.2279;fill:#BEC5D6;} .st88{opacity:0.2326;fill:#BDC4D6;} .st89{opacity:0.2372;fill:#BCC3D5;} .st90{opacity:0.2419;fill:#BBC2D4;} .st91{opacity:0.2465;fill:#BAC1D3;} .st92{opacity:0.2512;fill:#B9C0D3;} .st93{opacity:0.2558;fill:#B8BFD2;} .st94{opacity:0.2605;fill:#B7BED1;} .st95{opacity:0.2651;fill:#B6BDD0;} .st96{opacity:0.2698;fill:#B5BCCF;} .st97{opacity:0.2744;fill:#B4BBCF;} .st98{opacity:0.2791;fill:#B3BACE;} .st99{opacity:0.2837;fill:#B2B9CD;} .st100{opacity:0.2884;fill:#B1B8CC;} .st101{opacity:0.293;fill:#B0B7CC;} .st102{opacity:0.2977;fill:#AFB6CB;} .st103{opacity:0.3023;fill:#AEB5CA;} .st104{opacity:0.307;fill:#ADB4C9;} .st105{opacity:0.3116;fill:#ACB3C9;} .st106{opacity:0.3163;fill:#ABB2C8;} .st107{opacity:0.3209;fill:#AAB1C7;} .st108{opacity:0.3256;fill:#A9B0C6;} .st109{opacity:0.3302;fill:#A8AFC6;} .st110{opacity:0.3349;fill:#A7AEC5;} .st111{opacity:0.3395;fill:#A6ADC4;} .st112{opacity:0.3442;fill:#A5ACC3;} .st113{opacity:0.3488;fill:#A4ABC2;} .st114{opacity:0.3535;fill:#A3AAC2;} .st115{opacity:0.3581;fill:#A2A9C1;} .st116{opacity:0.3628;fill:#A1A8C0;} .st117{opacity:0.3674;fill:#A0A7BF;} .st118{opacity:0.3721;fill:#9FA6BF;} .st119{opacity:0.3767;fill:#9EA6BE;} .st120{opacity:0.3814;fill:#9DA5BD;} .st121{opacity:0.386;fill:#9CA4BC;} .st122{opacity:0.3907;fill:#9BA3BC;} .st123{opacity:0.3953;fill:#9AA2BB;} .st124{opacity:0.4;fill:#99A1BA;} .st125{opacity:0.4047;fill:#98A0B9;} .st126{opacity:0.4093;fill:#979FB8;} .st127{opacity:0.414;fill:#969EB8;} .st128{opacity:0.4186;fill:#959DB7;} .st129{opacity:0.4233;fill:#949CB6;} .st130{opacity:0.4279;fill:#939BB5;} .st131{opacity:0.4326;fill:#929AB5;} .st132{opacity:0.4372;fill:#9199B4;} .st133{opacity:0.4419;fill:#9098B3;} .st134{opacity:0.4465;fill:#8F97B2;} .st135{opacity:0.4512;fill:#8E96B2;} .st136{opacity:0.4558;fill:#8D95B1;} .st137{opacity:0.4605;fill:#8C94B0;} .st138{opacity:0.4651;fill:#8B93AF;} .st139{opacity:0.4698;fill:#8A92AE;} .st140{opacity:0.4744;fill:#8991AE;} .st141{opacity:0.4791;fill:#8890AD;} .st142{opacity:0.4837;fill:#878FAC;} .st143{opacity:0.4884;fill:#868EAB;} .st144{opacity:0.493;fill:#858DAB;} .st145{opacity:0.4977;fill:#848CAA;} .st146{opacity:0.5023;fill:#838BA9;} .st147{opacity:0.507;fill:#828AA8;} .st148{opacity:0.5116;fill:#8189A8;} .st149{opacity:0.5163;fill:#8088A7;} .st150{opacity:0.5209;fill:#7F87A6;} .st151{opacity:0.5256;fill:#7E86A5;} .st152{opacity:0.5302;fill:#7D85A5;} .st153{opacity:0.5349;fill:#7C84A4;} .st154{opacity:0.5395;fill:#7B83A3;} .st155{opacity:0.5442;fill:#7A82A2;} .st156{opacity:0.5488;fill:#7981A1;} .st157{opacity:0.5535;fill:#7880A1;} .st158{opacity:0.5581;fill:#777FA0;} .st159{opacity:0.5628;fill:#767E9F;} .st160{opacity:0.5674;fill:#757D9E;} .st161{opacity:0.5721;fill:#747C9E;} .st162{opacity:0.5767;fill:#737B9D;} .st163{opacity:0.5814;fill:#727A9C;} .st164{opacity:0.586;fill:#71799B;} .st165{opacity:0.5907;fill:#70789B;} .st166{opacity:0.5953;fill:#6F779A;} .st167{opacity:0.6;fill:#6E7699;} .st168{opacity:0.6047;fill:#6D7598;} .st169{opacity:0.6093;fill:#6C7497;} .st170{opacity:0.614;fill:#6B7397;} .st171{opacity:0.6186;fill:#6A7296;} .st172{opacity:0.6233;fill:#697195;} .st173{opacity:0.6279;fill:#687194;} .st174{opacity:0.6326;fill:#677094;} .st175{opacity:0.6372;fill:#666F93;} .st176{opacity:0.6419;fill:#656E92;} .st177{opacity:0.6465;fill:#646D91;} .st178{opacity:0.6512;fill:#636C91;} .st179{opacity:0.6558;fill:#626B90;} .st180{opacity:0.6605;fill:#616A8F;} .st181{opacity:0.6651;fill:#60698E;} .st182{opacity:0.6698;fill:#5F688D;} .st183{opacity:0.6744;fill:#5E678D;} .st184{opacity:0.6791;fill:#5D668C;} .st185{opacity:0.6837;fill:#5C658B;} .st186{opacity:0.6884;fill:#5B648A;} .st187{opacity:0.693;fill:#5A638A;} .st188{opacity:0.6977;fill:#596289;} .st189{opacity:0.7023;fill:#586188;} .st190{opacity:0.707;fill:#576087;} .st191{opacity:0.7116;fill:#565F87;} .st192{opacity:0.7163;fill:#555E86;} .st193{opacity:0.7209;fill:#545D85;} .st194{opacity:0.7256;fill:#535C84;} .st195{opacity:0.7302;fill:#525B84;} .st196{opacity:0.7349;fill:#515A83;} .st197{opacity:0.7395;fill:#505982;} .st198{opacity:0.7442;fill:#4F5881;} .st199{opacity:0.7488;fill:#4E5780;} .st200{opacity:0.7535;fill:#4D5680;} .st201{opacity:0.7581;fill:#4C557F;} .st202{opacity:0.7628;fill:#4B547E;} .st203{opacity:0.7674;fill:#4A537D;} .st204{opacity:0.7721;fill:#49527D;} .st205{opacity:0.7767;fill:#48517C;} .st206{opacity:0.7814;fill:#47507B;} .st207{opacity:0.786;fill:#464F7A;} .st208{opacity:0.7907;fill:#454E7A;} .st209{opacity:0.7953;fill:#444D79;} .st210{opacity:0.8;fill:#434C78;} .st211{opacity:0.8047;fill:#424B77;} .st212{opacity:0.8093;fill:#414A76;} .st213{opacity:0.814;fill:#404976;} .st214{opacity:0.8186;fill:#3F4875;} .st215{opacity:0.8233;fill:#3E4774;} .st216{opacity:0.8279;fill:#3D4673;} .st217{opacity:0.8326;fill:#3C4573;} .st218{opacity:0.8372;fill:#3B4472;} .st219{opacity:0.8419;fill:#3A4371;} .st220{opacity:0.8465;fill:#394270;} .st221{opacity:0.8512;fill:#384170;} .st222{opacity:0.8558;fill:#37406F;} .st223{opacity:0.8605;fill:#363F6E;} .st224{opacity:0.8651;fill:#353E6D;} .st225{opacity:0.8698;fill:#343D6C;} .st226{opacity:0.8744;fill:#333C6C;} .st227{opacity:0.8791;fill:#323C6B;} .st228{opacity:0.8837;fill:#313B6A;} .st229{opacity:0.8884;fill:#303A69;} .st230{opacity:0.893;fill:#2F3969;} .st231{opacity:0.8977;fill:#2E3868;} .st232{opacity:0.9023;fill:#2D3767;} .st233{opacity:0.907;fill:#2C3666;} .st234{opacity:0.9116;fill:#2B3566;} .st235{opacity:0.9163;fill:#2A3465;} .st236{opacity:0.9209;fill:#293364;} .st237{opacity:0.9256;fill:#283263;} .st238{opacity:0.9302;fill:#273163;} .st239{opacity:0.9349;fill:#263062;} .st240{opacity:0.9395;fill:#252F61;} .st241{opacity:0.9442;fill:#242E60;} .st242{opacity:0.9488;fill:#232D5F;} .st243{opacity:0.9535;fill:#222C5F;} .st244{opacity:0.9581;fill:#212B5E;} .st245{opacity:0.9628;fill:#202A5D;} .st246{opacity:0.9674;fill:#1F295C;} .st247{opacity:0.9721;fill:#1E285C;} .st248{opacity:0.9767;fill:#1D275B;} .st249{opacity:0.9814;fill:#1C265A;} .st250{opacity:0.986;fill:#1B2559;} .st251{opacity:0.9907;fill:#1A2459;} .st252{opacity:0.9953;fill:#192358;} .st253{fill:#182257;} .st254{fill:#00FFA8;} .st255{fill:#1D2973;} .st256{opacity:0.5;} .st257{opacity:0.2;} .st258{opacity:4.761905e-03;fill:#EEF4FB;} .st259{opacity:9.523810e-03;fill:#EDF3FB;} .st260{opacity:0.0143;fill:#ECF2FA;} .st261{opacity:0.019;fill:#EBF1F9;} .st262{opacity:0.0238;fill:#EAF0F9;} .st263{opacity:0.0286;fill:#E9EFF8;} .st264{opacity:0.0333;fill:#E8EEF7;} .st265{opacity:0.0381;fill:#E7EDF7;} .st266{opacity:0.0429;fill:#E6ECF6;} .st267{opacity:0.0476;fill:#E5EBF5;} .st268{opacity:0.0524;fill:#E4EAF5;} .st269{opacity:0.0571;fill:#E3E9F4;} .st270{opacity:0.0619;fill:#E2E8F4;} .st271{opacity:0.0667;fill:#E1E7F3;} .st272{opacity:0.0714;fill:#E0E6F2;} .st273{opacity:0.0762;fill:#DFE5F2;} .st274{opacity:0.081;fill:#DEE4F1;} .st275{opacity:0.0857;fill:#DDE4F0;} .st276{opacity:0.0905;fill:#DCE3F0;} .st277{opacity:0.0952;fill:#DBE2EF;} .st278{opacity:0.1;fill:#DAE1EE;} .st279{opacity:0.1048;fill:#D9E0EE;} .st280{opacity:0.1095;fill:#D8DFED;} .st281{opacity:0.1143;fill:#D7DEEC;} .st282{opacity:0.119;fill:#D6DDEC;} .st283{opacity:0.1238;fill:#D5DCEB;} .st284{opacity:0.1286;fill:#D4DBEA;} .st285{opacity:0.1333;fill:#D3DAEA;} .st286{opacity:0.1381;fill:#D2D9E9;} .st287{opacity:0.1429;fill:#D1D8E8;} .st288{opacity:0.1476;fill:#D0D7E8;} .st289{opacity:0.1524;fill:#CFD6E7;} .st290{opacity:0.1571;fill:#CED5E6;} .st291{opacity:0.1619;fill:#CDD4E6;} .st292{opacity:0.1667;fill:#CCD3E5;} .st293{opacity:0.1714;fill:#CBD2E5;} .st294{opacity:0.1762;fill:#CAD1E4;} .st295{opacity:0.181;fill:#C9D0E3;} .st296{opacity:0.1857;fill:#C8CFE3;} .st297{opacity:0.1905;fill:#C7CEE2;} .st298{opacity:0.1952;fill:#C6CDE1;} .st299{opacity:0.2;fill:#C5CCE1;} .st300{opacity:0.2048;fill:#C4CBE0;} .st301{opacity:0.2095;fill:#C3CADF;} .st302{opacity:0.2143;fill:#C2C9DF;} .st303{opacity:0.219;fill:#C1C8DE;} .st304{opacity:0.2238;fill:#C0C7DD;} .st305{opacity:0.2286;fill:#BFC6DD;} .st306{opacity:0.2333;fill:#BEC5DC;} .st307{opacity:0.2381;fill:#BDC4DB;} .st308{opacity:0.2429;fill:#BCC3DB;} .st309{opacity:0.2476;fill:#BBC2DA;} .st310{opacity:0.2524;fill:#BAC2D9;} .st311{opacity:0.2571;fill:#B9C1D9;} .st312{opacity:0.2619;fill:#B8C0D8;} .st313{opacity:0.2667;fill:#B7BFD7;} .st314{opacity:0.2714;fill:#B6BED7;} .st315{opacity:0.2762;fill:#B5BDD6;} .st316{opacity:0.281;fill:#B4BCD6;} .st317{opacity:0.2857;fill:#B3BBD5;} .st318{opacity:0.2905;fill:#B2BAD4;} .st319{opacity:0.2952;fill:#B1B9D4;} .st320{opacity:0.3;fill:#B0B8D3;} .st321{opacity:0.3048;fill:#AFB7D2;} .st322{opacity:0.3095;fill:#AEB6D2;} .st323{opacity:0.3143;fill:#ADB5D1;} .st324{opacity:0.319;fill:#ACB4D0;} .st325{opacity:0.3238;fill:#ABB3D0;} .st326{opacity:0.3286;fill:#AAB2CF;} .st327{opacity:0.3333;fill:#A9B1CE;} .st328{opacity:0.3381;fill:#A8B0CE;} .st329{opacity:0.3429;fill:#A7AFCD;} .st330{opacity:0.3476;fill:#A6AECC;} .st331{opacity:0.3524;fill:#A5ADCC;} .st332{opacity:0.3571;fill:#A4ACCB;} .st333{opacity:0.3619;fill:#A3ABCA;} .st334{opacity:0.3667;fill:#A2AACA;} .st335{opacity:0.3714;fill:#A1A9C9;} .st336{opacity:0.3762;fill:#A0A8C8;} .st337{opacity:0.381;fill:#9FA7C8;} .st338{opacity:0.3857;fill:#9EA6C7;} .st339{opacity:0.3905;fill:#9DA5C7;} .st340{opacity:0.3952;fill:#9CA4C6;} .st341{opacity:0.4;fill:#9BA3C5;} .st342{opacity:0.4048;fill:#9AA2C5;} .st343{opacity:0.4095;fill:#99A1C4;} .st344{opacity:0.4143;fill:#98A0C3;} .st345{opacity:0.419;fill:#97A0C3;} .st346{opacity:0.4238;fill:#969FC2;} .st347{opacity:0.4286;fill:#959EC1;} .st348{opacity:0.4333;fill:#949DC1;} .st349{opacity:0.4381;fill:#939CC0;} .st350{opacity:0.4429;fill:#929BBF;} .st351{opacity:0.4476;fill:#919ABF;} .st352{opacity:0.4524;fill:#9099BE;} .st353{opacity:0.4571;fill:#8F98BD;} .st354{opacity:0.4619;fill:#8E97BD;} .st355{opacity:0.4667;fill:#8D96BC;} .st356{opacity:0.4714;fill:#8C95BB;} .st357{opacity:0.4762;fill:#8B94BB;} .st358{opacity:0.481;fill:#8A93BA;} .st359{opacity:0.4857;fill:#8992B9;} .st360{opacity:0.4905;fill:#8891B9;} .st361{opacity:0.4952;fill:#8790B8;} .st362{opacity:0.5;fill:#868FB7;} .st363{opacity:0.5048;fill:#858EB7;} .st364{opacity:0.5095;fill:#848DB6;} .st365{opacity:0.5143;fill:#838CB6;} .st366{opacity:0.519;fill:#828BB5;} .st367{opacity:0.5238;fill:#818AB4;} .st368{opacity:0.5286;fill:#8089B4;} .st369{opacity:0.5333;fill:#7F88B3;} .st370{opacity:0.5381;fill:#7E87B2;} .st371{opacity:0.5429;fill:#7D86B2;} .st372{opacity:0.5476;fill:#7C85B1;} .st373{opacity:0.5524;fill:#7B84B0;} .st374{opacity:0.5571;fill:#7A83B0;} .st375{opacity:0.5619;fill:#7982AF;} .st376{opacity:0.5667;fill:#7881AE;} .st377{opacity:0.5714;fill:#7780AE;} .st378{opacity:0.5762;fill:#767FAD;} .st379{opacity:0.581;fill:#757EAC;} .st380{opacity:0.5857;fill:#747EAC;} .st381{opacity:0.5905;fill:#737DAB;} .st382{opacity:0.5952;fill:#727CAA;} .st383{opacity:0.6;fill:#717BAA;} .st384{opacity:0.6048;fill:#707AA9;} .st385{opacity:0.6095;fill:#6F79A8;} .st386{opacity:0.6143;fill:#6E78A8;} .st387{opacity:0.619;fill:#6D77A7;} .st388{opacity:0.6238;fill:#6C76A7;} .st389{opacity:0.6286;fill:#6B75A6;} .st390{opacity:0.6333;fill:#6A74A5;} .st391{opacity:0.6381;fill:#6973A5;} .st392{opacity:0.6429;fill:#6872A4;} .st393{opacity:0.6476;fill:#6771A3;} .st394{opacity:0.6524;fill:#6670A3;} .st395{opacity:0.6571;fill:#656FA2;} .st396{opacity:0.6619;fill:#646EA1;} .st397{opacity:0.6667;fill:#636DA1;} .st398{opacity:0.6714;fill:#626CA0;} .st399{opacity:0.6762;fill:#616B9F;} .st400{opacity:0.681;fill:#606A9F;} .st401{opacity:0.6857;fill:#5F699E;} .st402{opacity:0.6905;fill:#5E689D;} .st403{opacity:0.6952;fill:#5D679D;} .st404{opacity:0.7;fill:#5C669C;} .st405{opacity:0.7048;fill:#5B659B;} .st406{opacity:0.7095;fill:#5A649B;} .st407{opacity:0.7143;fill:#59639A;} .st408{opacity:0.719;fill:#586299;} .st409{opacity:0.7238;fill:#576199;} .st410{opacity:0.7286;fill:#566098;} .st411{opacity:0.7333;fill:#555F98;} .st412{opacity:0.7381;fill:#545E97;} .st413{opacity:0.7429;fill:#535D96;} .st414{opacity:0.7476;fill:#525C96;} .st415{opacity:0.7524;fill:#515C95;} .st416{opacity:0.7571;fill:#505B94;} .st417{opacity:0.7619;fill:#4F5A94;} .st418{opacity:0.7667;fill:#4E5993;} .st419{opacity:0.7714;fill:#4D5892;} .st420{opacity:0.7762;fill:#4C5792;} .st421{opacity:0.781;fill:#4B5691;} .st422{opacity:0.7857;fill:#4A5590;} .st423{opacity:0.7905;fill:#495490;} .st424{opacity:0.7952;fill:#48538F;} .st425{opacity:0.8;fill:#47528E;} .st426{opacity:0.8048;fill:#46518E;} .st427{opacity:0.8095;fill:#45508D;} .st428{opacity:0.8143;fill:#444F8C;} .st429{opacity:0.819;fill:#434E8C;} .st430{opacity:0.8238;fill:#424D8B;} .st431{opacity:0.8286;fill:#414C8A;} .st432{opacity:0.8333;fill:#404B8A;} .st433{opacity:0.8381;fill:#3F4A89;} .st434{opacity:0.8429;fill:#3E4989;} .st435{opacity:0.8476;fill:#3D4888;} .st436{opacity:0.8524;fill:#3C4787;} .st437{opacity:0.8571;fill:#3B4687;} .st438{opacity:0.8619;fill:#3A4586;} .st439{opacity:0.8667;fill:#394485;} .st440{opacity:0.8714;fill:#384385;} .st441{opacity:0.8762;fill:#374284;} .st442{opacity:0.881;fill:#364183;} .st443{opacity:0.8857;fill:#354083;} .st444{opacity:0.8905;fill:#343F82;} .st445{opacity:0.8952;fill:#333E81;} .st446{opacity:0.9;fill:#323D81;} .st447{opacity:0.9048;fill:#313C80;} .st448{opacity:0.9095;fill:#303B7F;} .st449{opacity:0.9143;fill:#2F3A7F;} .st450{opacity:0.919;fill:#2E3A7E;} .st451{opacity:0.9238;fill:#2D397D;} .st452{opacity:0.9286;fill:#2C387D;} .st453{opacity:0.9333;fill:#2B377C;} .st454{opacity:0.9381;fill:#2A367B;} .st455{opacity:0.9429;fill:#29357B;} .st456{opacity:0.9476;fill:#28347A;} .st457{opacity:0.9524;fill:#27337A;} .st458{opacity:0.9571;fill:#263279;} .st459{opacity:0.9619;fill:#253178;} .st460{opacity:0.9667;fill:#243078;} .st461{opacity:0.9714;fill:#232F77;} .st462{opacity:0.9762;fill:#222E76;} .st463{opacity:0.981;fill:#212D76;} .st464{opacity:0.9857;fill:#202C75;} .st465{opacity:0.9905;fill:#1F2B74;} .st466{opacity:0.9952;fill:#1E2A74;} .st467{fill:#779EC6;} .st468{fill:url(#SVGID_41_);} .st469{fill:url(#SVGID_42_);} .st470{fill:url(#SVGID_43_);} .st471{fill:url(#SVGID_44_);} .st472{fill:url(#SVGID_45_);} .st473{fill:url(#SVGID_46_);} .st474{fill:url(#SVGID_47_);} .st475{fill:url(#SVGID_48_);} .st476{fill:url(#SVGID_49_);} .st477{fill:url(#SVGID_50_);} .st478{fill:url(#SVGID_51_);} .st479{fill:url(#SVGID_52_);} .st480{fill:url(#SVGID_53_);} .st481{fill:url(#SVGID_54_);} .st482{fill:url(#SVGID_55_);} .st483{fill:url(#SVGID_56_);} .st484{fill:url(#SVGID_57_);} .st485{fill:url(#SVGID_58_);} .st486{fill:url(#SVGID_59_);} .st487{fill:url(#SVGID_60_);} .st488{fill:url(#SVGID_61_);} .st489{fill:url(#SVGID_62_);} .st490{fill:url(#SVGID_63_);} .st491{fill:#0F2860;} .st492{fill:none;stroke:#E7E7E8;stroke-width:0.25;stroke-miterlimit:10;} .st493{fill:url(#SVGID_64_);} .st494{fill:url(#SVGID_65_);} .st495{fill:none;stroke:#E6511E;stroke-width:1.4;stroke-miterlimit:10;} .st496{fill:url(#SVGID_66_);} .st497{fill:url(#SVGID_67_);} .st498{fill:url(#SVGID_68_);} .st499{fill:url(#SVGID_69_);} .st500{fill:url(#SVGID_70_);} .st501{fill:url(#SVGID_71_);} .st502{fill:url(#SVGID_72_);} .st503{fill:none;stroke:#90FF00;stroke-linecap:round;stroke-miterlimit:10;} .st504{fill:none;stroke:#90FF00;stroke-width:1.3;stroke-linecap:round;stroke-miterlimit:10;} .st505{fill:none;stroke:#90FF00;stroke-width:1.3;stroke-miterlimit:10;} .st506{fill:none;stroke:#90FF00;stroke-miterlimit:10;} .st507{fill:url(#SVGID_73_);} .st508{fill:url(#SVGID_74_);} .st509{fill:url(#SVGID_75_);} .st510{fill:url(#SVGID_76_);} .st511{fill:url(#SVGID_77_);} .st512{fill:url(#SVGID_78_);} .st513{fill:url(#SVGID_79_);} .st514{fill:url(#SVGID_80_);} .st515{fill:url(#SVGID_81_);} .st516{fill:none;stroke:#009DDF;stroke-width:1.3;stroke-miterlimit:10;} .st517{fill:none;stroke:#009DDF;stroke-width:1.3;stroke-linecap:round;stroke-linejoin:round;stroke-miterlimit:10;} .st518{fill:url(#SVGID_82_);} .st519{fill:url(#SVGID_83_);} .st520{fill:url(#SVGID_84_);} .st521{fill:url(#SVGID_85_);} .st522{fill:url(#SVGID_86_);} .st523{fill:url(#SVGID_87_);} .st524{fill:url(#SVGID_88_);} .st525{fill:url(#SVGID_89_);} .st526{fill:url(#SVGID_90_);} .st527{fill:url(#SVGID_91_);} .st528{fill:url(#SVGID_92_);} .st529{fill:url(#SVGID_93_);} .st530{fill:url(#SVGID_94_);} .st531{fill:url(#SVGID_95_);} .st532{fill:url(#SVGID_96_);} .st533{fill:url(#SVGID_97_);} .st534{fill:url(#SVGID_98_);} .st535{fill:url(#SVGID_99_);} .st536{fill:url(#SVGID_100_);} .st537{fill:url(#SVGID_101_);} .st538{fill:url(#SVGID_102_);} .st539{fill:url(#SVGID_103_);} .st540{fill:url(#SVGID_104_);} .st541{fill:url(#SVGID_105_);} .st542{fill:url(#SVGID_106_);} .st543{fill:url(#SVGID_107_);} .st544{fill:url(#SVGID_108_);} .st545{fill:url(#SVGID_109_);} .st546{fill:url(#SVGID_110_);} .st547{fill:url(#SVGID_111_);} .st548{fill:url(#SVGID_112_);} .st549{fill:url(#SVGID_113_);} .st550{fill:url(#SVGID_114_);} .st551{fill:none;stroke:#FFFFFF;stroke-width:2;stroke-linecap:round;stroke-linejoin:round;stroke-miterlimit:10;} .st552{fill:url(#SVGID_115_);} .st553{fill:url(#SVGID_116_);} .st554{fill:url(#SVGID_117_);} .st555{fill:url(#SVGID_118_);} .st556{fill:none;stroke:#FFFFFF;stroke-width:2;stroke-miterlimit:10;} .st557{fill:url(#SVGID_119_);} .st558{fill:url(#SVGID_120_);} .st559{fill:url(#SVGID_121_);} .st560{fill:none;stroke:#FFFFFF;stroke-miterlimit:10;} .st561{fill:none;stroke:#FFFFFF;stroke-linecap:round;stroke-miterlimit:10;} </style> <g> <path class="st22" d="M33.44,43.55c0-0.07,0.07-0.14,0.14-0.14h0.3c0.07,0,0.14,0.07,0.14,0.14v4.94c0,0.07-0.07,0.14-0.14,0.14 h-0.3c-0.07,0-0.14-0.07-0.14-0.14V43.55z"></path> <path class="st22" d="M40.76,43.47c0-0.07,0.07-0.13,0.14-0.13h0.19l3.36,4.19h0.01v-3.98c0-0.07,0.06-0.14,0.14-0.14h0.26 c0.07,0,0.14,0.07,0.14,0.14v5.02c0,0.07-0.07,0.13-0.14,0.13h-0.13l-3.42-4.28h-0.01v4.06c0,0.07-0.06,0.14-0.14,0.14h-0.26 c-0.07,0-0.14-0.07-0.14-0.14V43.47z"></path> <path class="st22" d="M51.42,47.85c0.04-0.04,0.07-0.1,0.11-0.14c0.07-0.1,0.16-0.16,0.26-0.07c0.05,0.04,0.6,0.57,1.26,0.57 c0.6,0,1-0.38,1-0.82c0-0.51-0.45-0.82-1.31-1.18c-0.82-0.36-1.31-0.69-1.31-1.54c0-0.51,0.4-1.33,1.59-1.33 c0.73,0,1.28,0.38,1.28,0.38c0.04,0.02,0.13,0.11,0.04,0.25c-0.03,0.04-0.06,0.1-0.09,0.14c-0.07,0.1-0.14,0.13-0.26,0.07 c-0.05-0.03-0.52-0.34-0.98-0.34c-0.79,0-1.03,0.51-1.03,0.82c0,0.5,0.38,0.79,1.01,1.05c1.01,0.41,1.66,0.79,1.66,1.66 c0,0.78-0.74,1.34-1.61,1.34c-0.88,0-1.48-0.51-1.57-0.6C51.41,48.05,51.33,47.99,51.42,47.85"></path> <path class="st22" d="M60.89,43.55c0-0.07,0.07-0.14,0.14-0.14h0.28c0.08,0,0.14,0.07,0.14,0.14v3.11c0,0.85,0.53,1.51,1.4,1.51 c0.88,0,1.42-0.65,1.42-1.5v-3.13c0-0.07,0.06-0.14,0.14-0.14h0.28c0.07,0,0.14,0.07,0.14,0.14v3.16c0,1.13-0.81,2-1.98,2 c-1.17,0-1.97-0.87-1.97-2V43.55z"></path> <path class="st22" d="M71.52,43.55c0-0.07,0.06-0.14,0.14-0.14h1.93c0.9,0,1.63,0.7,1.63,1.59c0,0.69-0.46,1.26-1.1,1.52l1.02,1.9 c0.05,0.1,0,0.22-0.13,0.22h-0.38c-0.07,0-0.1-0.04-0.12-0.07l-0.99-1.98H72.1v1.9c0,0.07-0.07,0.14-0.14,0.14h-0.29 c-0.08,0-0.14-0.07-0.14-0.14V43.55z M73.56,46.09c0.57,0,1.07-0.48,1.07-1.09c0-0.57-0.5-1.05-1.07-1.05h-1.45v2.14H73.56z"></path> <path class="st22" d="M80.96,48.43l2.27-5.02c0.02-0.04,0.06-0.08,0.13-0.08h0.07c0.07,0,0.1,0.04,0.13,0.08l2.25,5.02 c0.04,0.1-0.01,0.19-0.13,0.19h-0.3c-0.07,0-0.11-0.04-0.13-0.08l-0.55-1.23h-2.65l-0.54,1.23c-0.01,0.04-0.06,0.08-0.13,0.08h-0.3 C80.98,48.63,80.92,48.53,80.96,48.43 M84.5,46.85c-0.37-0.81-0.72-1.63-1.09-2.45h-0.06l-1.09,2.45H84.5z"></path> <path class="st22" d="M91.85,43.47c0-0.07,0.07-0.13,0.14-0.13h0.19l3.36,4.19h0.01v-3.98c0-0.07,0.06-0.14,0.14-0.14h0.26 c0.07,0,0.14,0.07,0.14,0.14v5.02c0,0.07-0.07,0.13-0.14,0.13h-0.13l-3.42-4.28h-0.01v4.06c0,0.07-0.06,0.14-0.14,0.14h-0.26 c-0.07,0-0.14-0.07-0.14-0.14V43.47z"></path> <path class="st22" d="M105.16,43.33c0.75,0,1.3,0.26,1.81,0.69c0.06,0.06,0.07,0.15,0.01,0.21l-0.2,0.2 c-0.06,0.07-0.12,0.07-0.19-0.01c-0.39-0.34-0.92-0.56-1.43-0.56c-1.18,0-2.08,0.99-2.08,2.15c0,1.15,0.9,2.14,2.08,2.14 c0.65,0,1.03-0.26,1.43-0.56c0.07-0.06,0.13-0.05,0.18-0.02l0.22,0.2c0.06,0.04,0.04,0.15-0.01,0.2c-0.51,0.49-1.15,0.72-1.81,0.72 c-1.49,0-2.69-1.19-2.69-2.68C102.46,44.53,103.66,43.33,105.16,43.33"></path> <path class="st22" d="M113.34,43.55c0-0.07,0.06-0.14,0.14-0.14h2.94c0.08,0,0.14,0.07,0.14,0.14v0.22c0,0.07-0.06,0.14-0.14,0.14 h-2.51v1.82h2.14c0.07,0,0.14,0.07,0.14,0.14v0.22c0,0.08-0.07,0.14-0.14,0.14h-2.14v1.9h2.51c0.08,0,0.14,0.07,0.14,0.14v0.22 c0,0.07-0.06,0.14-0.14,0.14h-2.94c-0.08,0-0.14-0.07-0.14-0.14V43.55z"></path> <path class="st22" d="M132.64,3.75c-8.73,0-15.8,7.07-15.8,15.8s7.07,15.8,15.8,15.8s15.8-7.07,15.8-15.8S141.37,3.75,132.64,3.75 M132.64,30.46c-6.02,0-10.9-4.88-10.9-10.9s4.88-10.9,10.9-10.9c6.02,0,10.9,4.88,10.9,10.9S138.66,30.46,132.64,30.46"></path> <polygon class="st22" points="38.04,30.4 38.04,3.75 33.09,3.75 33.09,35.37 48.89,35.37 48.89,30.4 "></polygon> <path class="st15" d="M74.22,27.25c0,2.09-1.69,3.78-3.78,3.78s-3.78-1.69-3.78-3.78c0-2.09,1.69-3.78,3.78-3.78 S74.22,25.16,74.22,27.25"></path> <polygon class="st15" points="89.27,38.23 73.29,1.3 73.2,1.3 67.71,1.3 67.6,1.3 51.65,38.23 57.6,38.23 70.45,7.81 83.32,38.23 "></polygon> <path class="st22" d="M115.03,35.37l-8.35-10.92c0.44-0.26,0.88-0.53,1.3-0.81c2.65-1.83,4.39-4.89,4.39-8.36 c0-3.47-1.74-6.53-4.39-8.36C105.22,5,101.9,3.75,96.92,3.75c-0.43,0-4.87,0.04-4.87,0.04v31.58H97v-8.69h0 c0.45,0.04,0.9,0.05,1.36,0.05c1.21,0,2.38-0.14,3.52-0.4l6.88,9.03H115.03z M97.15,21.78c-0.02,0-0.08,0-0.14,0V8.65 c0.07,0,0.12,0,0.16,0c-0.05,0-0.11,0-0.1,0c1.04,0.02,10.46,0.63,10.46,6.57C107.53,21.2,98.25,21.77,97.15,21.78"></path> <path class="st22" d="M25.07,27.26c-1.97,1.97-4.7,3.19-7.71,3.19c-6.02,0-10.9-4.88-10.9-10.9c0-6.02,4.88-10.9,10.9-10.9 c3.01,0,5.74,1.22,7.71,3.19l3.46-3.46c-2.86-2.86-6.81-4.63-11.17-4.63c-8.73,0-15.8,7.07-15.8,15.8c0,8.73,7.07,15.8,15.8,15.8 c4.36,0,8.31-1.77,11.17-4.63L25.07,27.26z"></path> </g> </svg> 